<?xml version="1.0" encoding="utf-8"?>
<!DOCTYPE svg PUBLIC "-//W3c//DTD SVG 1.1//EN" "http://www.w3.org/Graphics/SVG/1.1/DTD/svg11.dtd">
<svg xmlns="http://www.w3.org/2000/svg" xmlns:xlink="http://www.w3.org/1999/xlink" version="1.1" viewBox="0 0 128 128">
    <def>
        <g id="petal">
            <path fill="#D500DF" d="M0,0 C0,0 -10,-10 -10,-20 C-10,-26 -6,-30 0,-30 C6,-30 10,-26 10,-20 C10,-10 0,0 0,0"/>
            <path fill="#FFFFFF" d="M0,0 C0,0  -7,-10  -7,-18 C -7,-23 -4,-26 0,-26 C4,-26  7,-23  7,-18 C 7,-10 0,0 0,0"/>
            <path fill="#D500DF" d="M0,0 C-2,0 -2,-20 0,-20 C2,-20, 2,0 0,0"/>
        </g>
        <circle id="inner" cx="64" cy="64" r="58"/>
        <circle id="outer" cx="64" cy="64" r="64"/>
        <path id="shadow" d="M 74,25.5 l 24,32 L 102,48 l 24,32 L 128,128 L 61,128 l -24,-32 L 48.5,94 l-24,-32 L 64,64"/>
    </def>
    <clipPath id="clipCenter">
        <circle cx="-4" cy="-4" r="10"/>
    </clipPath>
    <clipPath id="clipInner">
        <use xlink:href="#inner"/>
    </clipPath>
    <clipPath id="clipOuter">
        <use xlink:href="#outer"/>
    </clipPath>
    <mask id="maskOutline">
        <use fill="white" xlink:href="#outer"/>
        <use fill="black" xlink:href="#inner"/>
    </mask>
    <use fill="#D91CE8" xlink:href="#outer"/>
    <use fill="#e8e030" xlink:href="#inner"/>
    <use fill="#E5C230" clip-path="url(#clipInner)" xlink:href="#shadow"/>
    <use fill="#D500DF" mask="url(#maskOutline)" xlink:href="#shadow"/>
    <g transform="translate(64 64) scale(1.4)">
        <use xlink:href="#petal"/>
        <use transform="rotate(72)" xlink:href="#petal"/>
        <use transform="rotate(144)" xlink:href="#petal"/>
        <use transform="rotate(216)" xlink:href="#petal"/>
        <use transform="rotate(288)" xlink:href="#petal"/>
        <circle cx="0" cy="0" r="10" fill="#D500DF"/>
        <circle cx="0" cy="0" r="10" fill="#D91CE8" clip-path="url(#clipCenter)"/>
    </g>
</svg>
